<svg width="40" height="41" viewBox="0 0 40 41" fill="none" xmlns="http://www.w3.org/2000/svg">
<g clip-path="url(#clip0_33750_1378)">
<path d="M20.072 39.7037L4.36653 30.5767L4.30859 10.2393L20.0137 19.3666L20.072 39.7037Z" fill="#2CC5E0"/>
<path d="M22.353 18.0162L35.5028 10.4246L19.7967 1.29688L4.30859 10.2394L20.0137 19.3668L20.0354 26.9209L26.6968 30.7922L35.5456 25.6827L22.353 18.0162Z" fill="#F7B52C"/>
<path d="M35.5018 10.4243L35.5163 15.5026L26.6668 20.6119L26.6957 30.792L35.5446 25.6824L35.5591 30.7615L20.0709 39.7036L20.0127 19.3665L35.5018 10.4243Z" fill="white"/>
<path d="M36.2888 25.6932C36.2921 25.5715 36.2959 25.2712 35.931 25.0621C35.9266 25.0598 28.226 20.5831 28.226 20.5831L35.8888 16.1586C36.1196 16.0256 36.261 15.7794 36.2603 15.5133L36.2458 10.435C36.2465 9.98772 35.9386 9.83184 35.8765 9.79485C35.8722 9.79236 20.1707 0.66733 20.1707 0.66733C19.9392 0.533325 19.6556 0.533325 19.4258 0.665928L3.93742 9.60844C3.53891 9.85076 3.56554 10.1702 3.56592 10.2514C3.56592 10.2543 3.62393 30.5915 3.62393 30.5915C3.62463 30.8558 3.76526 31.0991 3.99387 31.2318L19.6985 40.3582C19.9782 40.5092 20.366 40.4066 20.5779 40.2821L35.9317 31.418C36.1624 31.2844 36.304 31.0383 36.3031 30.7721L36.2888 25.6932ZM5.10811 30.1614L5.05508 11.5445L19.2725 19.8075L19.3256 38.4235L5.10811 30.1614ZM5.79098 10.2538L19.7957 2.16762L34.0209 10.4348L20.0151 18.521L5.79098 10.2538ZM27.4362 29.5204L27.4143 21.8287L34.0638 25.6933L27.4362 29.5204ZM26.0729 20.1905C25.9701 20.3074 25.9247 20.4661 25.9251 20.6267L25.9542 30.8073C25.9549 31.0706 26.096 31.3139 26.3236 31.447C26.6582 31.6052 26.9205 31.5292 27.0683 31.4484L34.8068 26.9797L34.816 30.3463L20.8111 38.4315L20.7581 19.8075L34.7638 11.7213L34.7733 15.0874L27.1704 19.4767C27.1705 19.4767 26.2856 19.9486 26.0729 20.1905Z" fill="black"/>
</g>
<defs>
<clipPath id="clip0_33750_1378">
<rect width="39.8667" height="39.8667" fill="white" transform="translate(0 0.56665)"/>
</clipPath>
</defs>
</svg>
